<svg width="75" height="29" viewBox="0 0 75 29" fill="none" xmlns="http://www.w3.org/2000/svg">
<path d="M14.3593 22.9896C14.6404 22.9896 14.9217 22.8823 15.1361 22.6679L16.7967 21.0072C17.2257 20.5781 17.2257 19.8826 16.7967 19.4536C16.3676 19.0245 15.672 19.0245 15.2431 19.4536L13.5825 21.1143C13.1535 21.5433 13.1535 22.2388 13.5825 22.6679C13.7971 22.8823 14.0782 22.9896 14.3593 22.9896Z" fill="#333333"/>
<path d="M61.038 22.6678C61.2525 22.8822 61.5337 22.9894 61.8148 22.9894C62.0959 22.9894 62.3772 22.8822 62.5916 22.6678C63.0207 22.2387 63.0207 21.543 62.5916 21.1141L60.9311 19.4534C60.502 19.0244 59.8064 19.0244 59.3775 19.4534C58.9484 19.8825 58.9484 20.5782 59.3775 21.0071L61.038 22.6678Z" fill="#333333"/>
<path d="M71.687 11.4057C65.4819 8.52407 56.1482 8.24839 54.2635 8.22246L45.3628 2.55835C42.7327 0.884619 39.6949 0 36.5776 0H26.1158C23.4073 0 20.6952 0.640283 18.2726 1.85156L12.6999 4.63784C11.021 5.47734 9.22529 6.02095 7.3626 6.25386L3.01963 6.79673C1.29814 7.01177 0 8.48233 0 10.2171V17.2292C0 19.2816 1.37827 21.1088 3.35171 21.6727L8.5418 23.1555C9.4333 25.9781 12.0759 28.0304 15.1894 28.0304C17.7791 28.0304 20.0417 26.6096 21.2433 24.5076H54.9308C56.1324 26.6096 58.395 28.0304 60.9847 28.0304C64.8278 28.0304 67.9545 24.9037 67.9545 21.0605C67.9545 17.2173 64.8278 14.0906 60.9847 14.0906C57.1415 14.0906 54.0148 17.2172 54.0148 21.0605C54.0148 21.4874 54.0554 21.9045 54.1292 22.3103H22.0447C22.1186 21.9044 22.1591 21.4872 22.1591 21.0605C22.1591 17.2173 19.0324 14.0906 15.1893 14.0906C11.4401 14.0906 8.37436 17.0666 8.22656 20.7801L3.95522 19.5598C2.92031 19.2642 2.19727 18.3059 2.19727 17.2292V13.9396H3.44707C4.05381 13.9396 4.5457 13.4477 4.5457 12.841C4.5457 12.2342 4.05381 11.7423 3.44707 11.7423H2.19727V10.2171C2.19727 9.58814 2.66792 9.05493 3.29209 8.977L7.63506 8.43413C9.74561 8.17031 11.7801 7.5542 13.6825 6.60308L14.1836 6.35259L16.2158 8.37539C17.5323 9.69184 19.2826 10.4169 21.1443 10.4169H23.4092C24.016 10.4169 24.5079 9.92505 24.5079 9.31831C24.5079 8.71157 24.016 8.21968 23.4092 8.21968H21.1443C20.9522 8.21968 20.7624 8.20708 20.5746 8.18481L21.7885 2.8229C23.1921 2.41099 24.6546 2.19712 26.116 2.19712H31.7046V8.21953H28.1064C27.4997 8.21953 27.0078 8.71143 27.0078 9.31816C27.0078 9.9249 27.4997 10.4168 28.1064 10.4168H53.9394C54.0435 10.4168 64.4227 10.4546 70.7616 13.3983C71.1335 13.571 71.4649 13.8076 71.748 14.0906H70.3789C69.7721 14.0906 69.2802 14.5825 69.2802 15.1893C69.2802 15.796 69.7721 16.2879 70.3789 16.2879H72.783C72.7948 16.4068 72.8029 16.5264 72.8029 16.6477V20.5459C72.8029 21.6343 72.3239 22.3103 71.5531 22.3103C70.9463 22.3103 70.4544 22.8022 70.4544 23.4089C70.4544 24.0157 70.9463 24.5076 71.5531 24.5076C72.526 24.5076 73.4101 24.1072 74.0426 23.3802C74.6689 22.66 75.0001 21.68 75.0001 20.5459V16.6477C75 14.398 73.6995 12.3403 71.687 11.4057ZM60.9847 16.288C63.6163 16.288 65.7573 18.4291 65.7573 21.0606C65.7573 23.6922 63.6163 25.8333 60.9847 25.8333C58.3531 25.8333 56.2121 23.6922 56.2121 21.0606C56.2121 18.4291 58.3531 16.288 60.9847 16.288ZM15.1894 16.288C17.821 16.288 19.962 18.4291 19.962 21.0606C19.962 23.6922 17.821 25.8333 15.1894 25.8333C12.5578 25.8333 10.4168 23.6922 10.4168 21.0606C10.4168 18.4291 12.558 16.288 15.1894 16.288ZM18.495 7.41855C18.237 7.2457 17.994 7.04634 17.7694 6.82178L16.2614 5.31372L19.2552 3.8168C19.2757 3.80654 19.2967 3.79702 19.3172 3.78691L18.495 7.41855ZM33.9018 2.19712H36.5776C39.2763 2.19712 41.9062 2.96309 44.1832 4.41196L50.1667 8.21968H33.9018V2.19712Z" fill="#333333"/>
<path d="M25.7578 17.6135C25.1511 17.6135 24.6592 18.1054 24.6592 18.7121C24.6592 19.3188 25.1511 19.8107 25.7578 19.8107H50.4167C51.0234 19.8107 51.5153 19.3188 51.5153 18.7121C51.5153 18.1054 51.0234 17.6135 50.4167 17.6135H25.7578Z" fill="#333333"/>
</svg>
