<svg width="50" height="50" viewBox="0 0 50 50" fill="none" xmlns="http://www.w3.org/2000/svg">
<path d="M43.9465 20.238L41.2443 17.2493C41.7695 16.3619 41.957 15.3275 41.7702 14.303C41.5648 13.1766 40.933 12.1974 39.9913 11.546L36.0925 8.84957C36.117 8.2201 36.0013 7.58789 35.7452 6.9921C35.293 5.94011 34.4582 5.12719 33.3944 4.703L24.7724 1.2653C23.7274 0.848657 22.5887 0.859915 21.5663 1.27959C20.7884 0.490359 19.708 0 18.5148 0H9.23285C6.86896 0 4.9458 1.92316 4.9458 4.28705V41.072C4.9458 45.995 8.95091 50 13.8738 50C16.1141 50 18.1642 49.1703 19.7333 47.8024C19.7558 47.7864 19.7779 47.7693 19.7989 47.7505L36.514 32.7077C36.8153 32.4364 36.8398 31.9722 36.5686 31.6708C36.2973 31.3693 35.8328 31.3449 35.5317 31.6162L34.8431 32.236L32.6057 29.7614L36.1184 24.6823L39.3119 28.2142L37.8589 29.5219C37.5576 29.7932 37.5331 30.2574 37.8043 30.5588C37.9493 30.7199 38.1494 30.8019 38.3502 30.8019C38.5253 30.8019 38.7009 30.7397 38.8413 30.6134L43.6418 26.2931C44.4912 25.5251 44.9906 24.4722 45.0482 23.3286C45.1057 22.185 44.7145 21.0873 43.9465 20.238ZM40.3256 14.5664C40.4606 15.307 40.299 16.056 39.8708 16.6751L37.8771 19.5579L33.3383 16.419L35.7412 10.3922L39.1559 12.7538C39.7752 13.182 40.1906 13.8257 40.3256 14.5664ZM33.3469 26.1083L30.3119 24.0093L32.7803 17.8185L37.0418 20.7656L33.3469 26.1083ZM28.8167 32.6587L27.2855 31.5997L29.7539 25.4088L32.5115 27.316L28.8167 32.6587ZM29.9468 20.9603L27.8189 20.1119C27.4424 19.9618 27.0153 20.1453 26.865 20.522C26.7149 20.8987 26.8985 21.3257 27.2751 21.476L29.4029 22.3243L26.8807 28.6501L22.8019 27.0238V19.6924L24.3559 20.312C24.445 20.3475 24.5371 20.3643 24.6275 20.3643C24.9192 20.3643 25.1951 20.1893 25.3098 19.9019C25.4599 19.5252 25.2764 19.0982 24.8998 18.9479L22.8019 18.1115V10.7801L32.469 14.6345L29.9468 20.9603ZM21.3334 16.3779H13.0166C12.6111 16.3779 12.2824 16.7067 12.2824 17.1122C12.2824 17.5176 12.6111 17.8464 13.0166 17.8464H21.3334V24.6565H6.41424V17.8464H9.88757C10.2931 17.8464 10.6218 17.5176 10.6218 17.1122C10.6218 16.7067 10.2931 16.3779 9.88757 16.3779H6.41424V9.56783H21.3333V16.3779H21.3334ZM6.41424 26.1249H21.3333V32.935H6.41424V26.1249ZM22.8019 28.6046L26.3369 30.0141L22.8019 38.8801V28.6046ZM27.377 37.3219L28.1912 38.2224L24.3857 41.6471L27.377 37.3219ZM24.2041 39.3282L26.7276 32.9991L27.9815 33.8663L24.2041 39.3282ZM24.2286 2.62938L32.8506 6.06708C33.5499 6.34589 34.0987 6.8804 34.396 7.57203C34.6005 8.04751 34.6692 8.55823 34.6015 9.05818C34.6003 9.06396 34.5998 9.06983 34.5987 9.07561C34.5674 9.29695 34.5096 9.51614 34.4246 9.72906L33.0127 13.2704L22.8019 9.19915V4.28705C22.8019 3.66267 22.6666 3.06952 22.4256 2.53393C23.0147 2.36741 23.6441 2.39629 24.2286 2.62938ZM9.23285 1.46843H18.5148C20.0689 1.46843 21.3334 2.73285 21.3334 4.28705V8.09949H6.41424V4.28705C6.41424 2.73285 7.67866 1.46843 9.23285 1.46843ZM6.41424 41.072V34.4035H21.3333V41.072C21.3333 45.1853 17.987 48.5316 13.8738 48.5316C9.7606 48.5316 6.41424 45.1852 6.41424 41.072ZM33.7516 33.2183L29.2828 37.24L28.235 36.0812L31.7477 31.0021L33.7516 33.2183ZM43.5816 23.2548C43.5438 24.0068 43.2155 24.6989 42.6581 25.2027L40.4034 27.2319L36.9764 23.4417L40.3945 18.4992L42.8572 21.2228C43.3622 21.7813 43.6195 22.5029 43.5816 23.2548Z" fill="#333333"/>
<path d="M13.7074 37.5779C11.766 37.5779 10.1865 39.1573 10.1865 41.0988C10.1865 43.0403 11.766 44.6197 13.7074 44.6197C15.6489 44.6197 17.2283 43.0403 17.2283 41.0988C17.2283 39.1573 15.6489 37.5779 13.7074 37.5779ZM13.7074 43.1514C12.5757 43.1514 11.655 42.2307 11.655 41.0989C11.655 39.9671 12.5757 39.0464 13.7074 39.0464C14.8392 39.0464 15.7599 39.9671 15.7599 41.0989C15.7599 42.2307 14.8392 43.1514 13.7074 43.1514Z" fill="#333333"/>
</svg>
