<svg width="50" height="50" viewBox="0 0 50 50" fill="none" xmlns="http://www.w3.org/2000/svg">
<g clip-path="url(#clip0_238_2)">
<path d="M43.5821 1.75519C40.0434 1.75519 37.1643 4.63419 37.1643 8.17306C37.1643 10.6622 38.5896 12.8234 40.6662 13.8873V22.0842H27.9158V13.8873C29.9924 12.8234 31.4178 10.6622 31.4178 8.17306C31.4178 4.63429 28.5388 1.75519 25 1.75519C21.4612 1.75519 18.5821 4.63419 18.5821 8.17306C18.5821 10.6622 20.0075 12.8234 22.0841 13.8873V22.0842H9.33369V13.8873C11.4103 12.8234 12.8356 10.6622 12.8356 8.17306C12.8356 4.63429 9.95664 1.75519 6.41777 1.75519C2.87891 1.75519 0 4.63419 0 8.17306C0 10.6622 1.42539 12.8234 3.50195 13.8873V28.888C3.50195 29.2925 3.82988 29.6204 4.23438 29.6204C4.63887 29.6204 4.9668 29.2925 4.9668 28.888V14.4259C4.99502 14.4324 5.02373 14.4369 5.05205 14.4431C5.97549 14.6436 6.94775 14.6393 7.86885 14.4259V22.8165C7.86885 23.221 8.19678 23.5489 8.60127 23.5489H22.8165C23.221 23.5489 23.5489 23.221 23.5489 22.8165V14.4259C24.0229 14.536 24.5135 14.5907 25 14.5907C25.4871 14.5907 25.9763 14.5359 26.451 14.4259V22.8165C26.451 23.221 26.7789 23.5489 27.1834 23.5489H41.3987C41.8032 23.5489 42.1312 23.221 42.1312 22.8165V14.4259C42.6063 14.5359 43.0944 14.5907 43.5821 14.5907C44.0688 14.5907 44.5589 14.5357 45.0331 14.4259V17.5226C45.0331 17.9271 45.361 18.255 45.7655 18.255C46.17 18.255 46.498 17.9271 46.498 17.5226V13.8872C48.5746 12.8234 50 10.6622 50 8.17306C50 4.63419 47.121 1.75519 43.5821 1.75519ZM1.46484 8.17306C1.46484 5.442 3.68672 3.22003 6.41777 3.22003C9.14883 3.22003 11.3708 5.44191 11.3708 8.17306C11.3708 10.3888 9.9082 12.2691 7.89795 12.8999C7.89453 12.901 7.89111 12.9023 7.88779 12.9033C6.93877 13.1953 5.89668 13.1989 4.94785 12.9033C4.94453 12.9023 4.94131 12.9011 4.93799 12.9C2.92754 12.2693 1.46484 10.3888 1.46484 8.17306ZM20.047 8.17306C20.047 5.442 22.2688 3.22003 25 3.22003C27.7312 3.22003 29.9529 5.44191 29.9529 8.17306C29.9529 10.3067 28.597 12.1294 26.7012 12.825C25.6893 13.1963 24.5587 13.2238 23.5297 12.9032C23.5271 12.9025 23.5246 12.9015 23.5221 12.9007C21.5106 12.2705 20.047 10.3896 20.047 8.17306ZM45.0623 12.8999C45.0589 12.901 45.0555 12.9023 45.0522 12.9033C44.097 13.1973 43.0674 13.1972 42.1122 12.9033C42.1088 12.9023 42.1055 12.901 42.1021 12.8999C40.0918 12.2691 38.6292 10.3888 38.6292 8.17306C38.6292 5.442 40.8511 3.22003 43.5822 3.22003C46.3134 3.22003 48.5352 5.44191 48.5352 8.17306C48.5352 10.3887 47.0726 12.2691 45.0623 12.8999Z" fill="#333333"/>
<path d="M4.23438 31.0828C3.82988 31.0828 3.50195 31.4107 3.50195 31.8152V36.1128C1.42539 37.1767 0 39.3378 0 41.827C0 45.3657 2.879 48.2448 6.41777 48.2448C9.95654 48.2448 12.8356 45.3658 12.8356 41.827C12.8356 39.3378 11.4103 37.1767 9.33369 36.1127V27.9158H22.0841V36.1128C20.0075 37.1768 18.5821 39.3379 18.5821 41.8271C18.5821 45.3658 21.4611 48.2449 25 48.2449C28.5389 48.2449 31.4178 45.3659 31.4178 41.8271C31.4178 39.3379 29.9924 37.1768 27.9158 36.1128V27.9159H45.7656C46.1701 27.9159 46.498 27.588 46.498 27.1835V20.4482C46.498 20.0438 46.1701 19.7158 45.7656 19.7158C45.3611 19.7158 45.0332 20.0438 45.0332 20.4482V26.451H27.1834C26.7789 26.451 26.451 26.7789 26.451 27.1834V35.574C26.4229 35.5675 26.3941 35.563 26.3658 35.5568C25.9178 35.4594 25.4586 35.4091 25 35.4091C24.514 35.4091 24.0227 35.4643 23.5489 35.5739V27.1833C23.5489 26.7788 23.221 26.4509 22.8165 26.4509H8.60127C8.19678 26.4509 7.86885 26.7788 7.86885 27.1833V35.5739C7.39473 35.464 6.90439 35.4091 6.41787 35.4091C5.93809 35.4091 5.43711 35.4649 4.96689 35.5739V31.815C4.9668 31.4107 4.63887 31.0828 4.23438 31.0828ZM29.9529 41.827C29.9529 44.558 27.7311 46.78 25 46.78C22.2689 46.78 20.047 44.5581 20.047 41.827C20.047 39.6098 21.5114 37.7283 23.5237 37.0987C23.5257 37.0981 23.5275 37.0975 23.5295 37.0968C24.4738 36.7898 25.5248 36.8041 26.4705 37.0968C26.4726 37.0974 26.4745 37.0981 26.4766 37.0988C28.4887 37.7285 29.9529 39.61 29.9529 41.827ZM11.3708 41.827C11.3708 44.558 9.14893 46.78 6.41777 46.78C3.68662 46.78 1.46484 44.5581 1.46484 41.827C1.46484 39.6105 2.92842 37.7295 4.93984 37.0993C4.94248 37.0985 4.94492 37.0976 4.94756 37.0968C5.90674 36.8063 6.93018 36.7983 7.88809 37.0968C7.89072 37.0977 7.89346 37.0986 7.89609 37.0994C9.90732 37.7297 11.3708 39.6105 11.3708 41.827Z" fill="#333333"/>
</g>
<defs>
<clipPath id="clip0_238_2">
<rect width="50" height="50" fill="white"/>
</clipPath>
</defs>
</svg>
