<svg width="50" height="50" viewBox="0 0 50 50" fill="none" xmlns="http://www.w3.org/2000/svg">
<g clip-path="url(#clip0_238_42)">
<path d="M6.2627 28.1315C6.2627 28.536 6.59063 28.864 6.99512 28.864H10.9093C11.3138 28.864 11.6417 28.536 11.6417 28.1315C11.6417 27.727 11.3138 27.3991 10.9093 27.3991H6.99512C6.59063 27.3991 6.2627 27.727 6.2627 28.1315Z" fill="#333333"/>
<path d="M43.7374 28.1315C43.7374 27.727 43.4095 27.3991 43.005 27.3991H39.0908C38.6863 27.3991 38.3584 27.727 38.3584 28.1315C38.3584 28.536 38.6863 28.864 39.0908 28.864H43.005C43.4095 28.864 43.7374 28.536 43.7374 28.1315Z" fill="#333333"/>
<path d="M25.7319 14.0406V10.1265C25.7319 9.72197 25.404 9.39404 24.9995 9.39404C24.595 9.39404 24.2671 9.72197 24.2671 10.1265V14.0406C24.2671 14.4451 24.595 14.7731 24.9995 14.7731C25.404 14.7731 25.7319 14.4451 25.7319 14.0406Z" fill="#333333"/>
<path d="M32.4359 15.9831C32.6891 15.9831 32.9353 15.8516 33.0709 15.6167L34.6365 12.9049C34.8388 12.5546 34.7187 12.1067 34.3685 11.9044C34.0181 11.7021 33.5702 11.8222 33.368 12.1725L31.8023 14.8843C31.6001 15.2346 31.7201 15.6826 32.0704 15.8848C32.1857 15.9514 32.3116 15.9831 32.4359 15.9831Z" fill="#333333"/>
<path d="M17.5635 15.9829C17.6877 15.9829 17.8137 15.9513 17.929 15.8847C18.2793 15.6825 18.3993 15.2345 18.1971 14.8842L16.6315 12.1724C16.4291 11.8221 15.9813 11.7021 15.631 11.9043C15.2807 12.1066 15.1606 12.5545 15.3629 12.9048L16.9285 15.6166C17.0642 15.8516 17.3104 15.9829 17.5635 15.9829Z" fill="#333333"/>
<path d="M8.77256 18.7628C8.57032 19.1131 8.69034 19.561 9.04063 19.7633L11.7524 21.3289C11.8678 21.3955 11.9938 21.4271 12.118 21.4271C12.3711 21.4271 12.6173 21.2957 12.7529 21.0608C12.9552 20.7105 12.8352 20.2626 12.4849 20.0603L9.77305 18.4947C9.42276 18.2923 8.97481 18.4125 8.77256 18.7628Z" fill="#333333"/>
<path d="M38.2472 34.9342C37.8969 34.7319 37.4489 34.852 37.2467 35.2023C37.0444 35.5526 37.1645 36.0005 37.5147 36.2028L40.2266 37.7684C40.3419 37.835 40.4679 37.8667 40.5921 37.8667C40.8452 37.8667 41.0914 37.7352 41.227 37.5003C41.4293 37.1501 41.3093 36.7021 40.959 36.4999L38.2472 34.9342Z" fill="#333333"/>
<path d="M9.40801 37.8666C9.53223 37.8666 9.65821 37.835 9.77354 37.7684L12.4854 36.2027C12.8356 36.0005 12.9557 35.5525 12.7534 35.2022C12.5511 34.852 12.1031 34.7319 11.7529 34.9342L9.04112 36.4998C8.69082 36.7021 8.5708 37.15 8.77305 37.5003C8.9087 37.7353 9.15489 37.8666 9.40801 37.8666Z" fill="#333333"/>
<path d="M40.2266 18.4948L37.5147 20.0604C37.1645 20.2627 37.0444 20.7106 37.2467 21.0609C37.3823 21.2959 37.6285 21.4272 37.8816 21.4272C38.0059 21.4272 38.1318 21.3956 38.2472 21.329L40.959 19.7633C41.3093 19.5611 41.4293 19.1131 41.227 18.7628C41.0248 18.4125 40.577 18.2923 40.2266 18.4948Z" fill="#333333"/>
<path d="M7.60811 33.5243C7.6709 33.5243 7.73467 33.5161 7.79815 33.4992L9.31045 33.094C9.70117 32.9893 9.93301 32.5876 9.82842 32.1969C9.72373 31.8062 9.32207 31.5744 8.93135 31.6789L7.41904 32.0841C7.02832 32.1888 6.79648 32.5905 6.90107 32.9812C6.98877 33.3084 7.28467 33.5243 7.60811 33.5243Z" fill="#333333"/>
<path d="M42.2019 22.764L40.6896 23.1692C40.2988 23.2739 40.067 23.6755 40.1716 24.0663C40.2593 24.3935 40.5552 24.6093 40.8786 24.6093C40.9414 24.6093 41.0052 24.6012 41.0687 24.5842L42.581 24.1791C42.9717 24.0744 43.2035 23.6727 43.0989 23.282C42.9942 22.8912 42.5924 22.6597 42.2019 22.764Z" fill="#333333"/>
<path d="M21.0476 10.5505C20.9429 10.1598 20.541 9.92802 20.1505 10.0325C19.7598 10.1372 19.5279 10.5389 19.6325 10.9296L20.0377 12.4419C20.1254 12.7691 20.4213 12.9849 20.7447 12.9849C20.8075 12.9849 20.8713 12.9768 20.9348 12.9598C21.3255 12.8552 21.5573 12.4535 21.4527 12.0628L21.0476 10.5505Z" fill="#333333"/>
<path d="M29.2551 12.985C29.5785 12.985 29.8745 12.7692 29.9622 12.4419L30.3673 10.9296C30.472 10.5389 30.2401 10.1373 29.8494 10.0325C29.4592 9.92815 29.0571 10.1597 28.9523 10.5505L28.5471 12.0628C28.4424 12.4535 28.6744 12.8551 29.0651 12.9599C29.1286 12.9768 29.1922 12.985 29.2551 12.985Z" fill="#333333"/>
<path d="M7.41859 24.1789L8.93089 24.5841C8.99437 24.6011 9.05814 24.6092 9.12093 24.6092C9.44427 24.6092 9.74027 24.3934 9.82796 24.0661C9.93265 23.6754 9.70072 23.2739 9.30999 23.1691L7.79769 22.7639C7.40755 22.6596 7.0054 22.891 6.90062 23.2819C6.79593 23.6727 7.02787 24.0742 7.41859 24.1789Z" fill="#333333"/>
<path d="M42.3919 33.5242C42.7153 33.5242 43.0113 33.3084 43.0989 32.9812C43.2036 32.5904 42.9717 32.1889 42.581 32.0841L41.0687 31.6789C40.6784 31.5745 40.2764 31.8061 40.1716 32.1969C40.0669 32.5876 40.2989 32.9892 40.6896 33.094L42.2019 33.4991C42.2654 33.5161 42.3291 33.5242 42.3919 33.5242Z" fill="#333333"/>
<path d="M13.3751 17.2395C13.5625 17.2395 13.75 17.168 13.8929 17.025C14.179 16.7389 14.179 16.2753 13.8929 15.9892L12.7859 14.8821C12.4999 14.596 12.0361 14.5961 11.7502 14.8821C11.4641 15.1681 11.4641 15.6318 11.7502 15.9178L12.8572 17.025C13.0002 17.168 13.1876 17.2395 13.3751 17.2395Z" fill="#333333"/>
<path d="M38.2495 15.9179C38.5355 15.6319 38.5355 15.1681 38.2495 14.8822C37.9635 14.5962 37.4997 14.5962 37.2138 14.8822L36.1066 15.9893C35.8206 16.2754 35.8206 16.7391 36.1066 17.0251C36.2496 17.168 36.4371 17.2396 36.6245 17.2396C36.8119 17.2396 36.9994 17.1681 37.1424 17.0251L38.2495 15.9179Z" fill="#333333"/>
<path d="M47.8605 17.9973C46.4892 14.9085 44.5361 12.1682 42.0554 9.85256C39.5793 7.54112 36.7175 5.78457 33.5499 4.63183C30.2529 3.43202 26.7807 2.94794 23.2296 3.19247C17.1447 3.61181 11.42 6.28242 7.10979 10.7122C2.80147 15.1402 0.284858 20.9362 0.0234316 27.0326C-0.251862 33.4538 1.90615 39.6553 6.10002 44.4947C7.40774 46.0037 9.32464 46.869 11.3592 46.869H38.6411C40.6747 46.869 42.5897 46.0055 43.8953 44.4999C47.832 39.9597 50 34.1466 50 28.1315C50 24.6049 49.2802 21.1952 47.8605 17.9973ZM42.7885 43.5402C41.7614 44.7248 40.2497 45.4042 38.6411 45.4042H11.3592C9.74974 45.4042 8.23626 44.723 7.20705 43.5353C3.25919 38.9798 1.22764 33.1412 1.48691 27.0953C1.73291 21.3589 4.10265 15.9034 8.1596 11.7337C12.2179 7.5627 17.6056 5.04834 23.3303 4.65381C26.6757 4.42334 29.9456 4.8789 33.049 6.0083C36.0304 7.09337 38.7244 8.74698 41.0558 10.9233C43.3918 13.1038 45.2307 15.6838 46.5217 18.5916C47.8577 21.601 48.5351 24.8108 48.5351 28.1314C48.5351 33.7943 46.4943 39.2664 42.7885 43.5402Z" fill="#333333"/>
<path d="M34.3936 42.2728H11.3616C10.6568 42.2728 9.98852 41.9659 9.52807 41.4307C6.17864 37.5385 4.43146 32.56 4.60842 27.4121C4.76467 22.8638 6.50286 18.4256 9.50268 14.9154C9.76547 14.6079 9.72924 14.1456 9.42172 13.8828C9.11429 13.6201 8.65199 13.6562 8.3891 13.9637C5.17463 17.7253 3.31203 22.4834 3.14445 27.3618C2.9549 32.8784 4.82766 38.2142 8.41781 42.3862C9.15678 43.2451 10.2298 43.7377 11.3617 43.7377H34.3937C34.7982 43.7377 35.1261 43.4097 35.1261 43.0052C35.1261 42.6007 34.7981 42.2728 34.3936 42.2728Z" fill="#333333"/>
<path d="M45.0124 19.3018C43.8228 16.6096 42.1278 14.2181 39.9742 12.1939C37.8242 10.1731 35.3376 8.63201 32.5833 7.61374C29.7183 6.55437 26.6985 6.11462 23.6073 6.30593C18.8667 6.59987 14.4327 8.41609 10.7847 11.5583C10.4782 11.8223 10.4438 12.2848 10.7078 12.5912C10.9718 12.8978 11.4343 12.9321 11.7407 12.6682C15.1443 9.73641 19.2791 8.04197 23.698 7.76804C29.4023 7.41413 34.8259 9.36532 38.971 13.2613C40.9808 15.1505 42.5627 17.3819 43.6725 19.8939C44.8211 22.4936 45.4035 25.2652 45.4035 28.1316C45.4035 33.0163 43.6491 37.7427 40.4635 41.4402C40.0076 41.9694 39.3424 42.273 38.6385 42.273H37.5248C37.1203 42.273 36.7923 42.6009 36.7923 43.0054C36.7923 43.4099 37.1203 43.7378 37.5248 43.7378H38.6385C39.7691 43.7378 40.8387 43.2489 41.5732 42.3964C44.9879 38.4331 46.8684 33.3671 46.8684 28.1316C46.8685 25.0599 46.2439 22.0892 45.0124 19.3018Z" fill="#333333"/>
<path d="M18.7876 35.9598V37.5255C18.7876 38.3611 19.4673 39.0408 20.3028 39.0408H29.6967C30.5322 39.0408 31.2119 38.3611 31.2119 37.5255V35.9598C31.2119 35.1243 30.5322 34.4446 29.6967 34.4446H20.3028C19.4674 34.4446 18.7876 35.1244 18.7876 35.9598ZM20.2524 35.9598C20.2524 35.932 20.275 35.9094 20.3028 35.9094H29.6967C29.7245 35.9094 29.7471 35.932 29.7471 35.9598V37.5255C29.7471 37.5534 29.7245 37.5759 29.6967 37.5759H20.3028C20.275 37.5759 20.2524 37.5534 20.2524 37.5255V35.9598Z" fill="#333333"/>
<path d="M21.3503 31.7807C21.4933 31.9238 21.6808 31.9953 21.8682 31.9953C22.0556 31.9953 22.2431 31.9238 22.3861 31.7807L23.4016 30.7653C23.8908 31.062 24.445 31.211 24.9996 31.211C25.7885 31.211 26.5775 30.9107 27.1781 30.31C28.2008 29.2872 28.3522 27.7186 27.6332 26.5335L34.52 19.6468C34.806 19.3608 34.806 18.897 34.52 18.6111C34.2339 18.325 33.7702 18.325 33.4842 18.6111L26.5975 25.4978C25.4124 24.7788 23.8438 24.9301 22.821 25.953C21.7983 26.9757 21.6469 28.5444 22.3659 29.7294L21.3503 30.7449C21.0642 31.0309 21.0642 31.4947 21.3503 31.7807ZM23.8568 26.9888C24.1719 26.6738 24.5856 26.5162 24.9996 26.5162C25.4133 26.5162 25.8273 26.6738 26.1423 26.9888C26.4475 27.294 26.6157 27.6998 26.6157 28.1316C26.6157 28.5633 26.4476 28.9691 26.1423 29.2744C25.8371 29.5796 25.4313 29.7477 24.9996 29.7477C24.5678 29.7477 24.1621 29.5796 23.8568 29.2744C23.5515 28.9691 23.3834 28.5633 23.3834 28.1316C23.3834 27.6998 23.5515 27.294 23.8568 26.9888Z" fill="#333333"/>
</g>
<defs>
<clipPath id="clip0_238_42">
<rect width="50" height="50" fill="white"/>
</clipPath>
</defs>
</svg>
