<svg width="50" height="50" viewBox="0 0 50 50" fill="none" xmlns="http://www.w3.org/2000/svg">
<g clip-path="url(#clip0_238_30)">
<path d="M9.06768 9.00003C8.99287 8.92498 8.90399 8.86543 8.80612 8.82479C8.70825 8.78416 8.60333 8.76324 8.49736 8.76324C8.3914 8.76324 8.28647 8.78416 8.18861 8.82479C8.09074 8.86543 8.00186 8.92498 7.92705 9.00003C7.65101 9.29482 1.13643 16.3073 0.124969 22.2656C-0.0845869 23.3659 -0.0475342 24.4988 0.233459 25.583C0.514452 26.6672 1.03239 27.6755 1.74997 28.5354C2.59748 29.4943 3.64151 30.2595 4.8111 30.779C5.98069 31.2984 7.24842 31.56 8.52809 31.5459C9.79635 31.5602 11.0528 31.3014 12.2122 30.787C13.3715 30.2726 14.4065 29.5146 15.2468 28.5646C15.9667 27.7002 16.4861 26.6869 16.7676 25.5978C17.0491 24.5086 17.0858 23.3707 16.875 22.2656C15.8593 16.3073 9.34476 9.29482 9.06768 9.00003ZM14.0531 27.5573C13.3604 28.3336 12.5089 28.952 11.5564 29.3705C10.6039 29.7891 9.57258 29.9981 8.53226 29.9834C7.47971 29.9985 6.43622 29.787 5.47265 29.3632C4.50908 28.9394 3.648 28.3132 2.94789 27.5271C2.37393 26.8426 1.96102 26.038 1.73962 25.1726C1.51822 24.3072 1.49399 23.4031 1.66872 22.5271C2.43539 18.0125 6.90205 12.5479 8.50205 10.7073C10.1021 12.5469 14.5666 18.0073 15.3343 22.5271C15.5112 23.408 15.4878 24.3173 15.2661 25.188C15.0443 26.0586 14.6298 26.8684 14.0531 27.5573Z" fill="#333333"/>
<path d="M14.43 22.2177C14.4064 22.1169 14.3629 22.0218 14.3022 21.9379C14.2414 21.8541 14.1646 21.7831 14.0762 21.7292C13.9878 21.6753 13.8895 21.6395 13.7871 21.6239C13.6848 21.6083 13.5803 21.6132 13.4799 21.6383C13.3794 21.6635 13.2849 21.7083 13.202 21.7703C13.119 21.8323 13.0492 21.9101 12.9966 21.9993C12.944 22.0885 12.9096 22.1873 12.8955 22.2898C12.8814 22.3924 12.8878 22.4968 12.9144 22.5969C12.9561 22.7656 12.9925 22.9344 13.0186 23.1C13.1238 23.6053 13.1144 24.1277 12.9911 24.6288C12.8678 25.13 12.6337 25.5971 12.3061 25.9958C11.8168 26.5574 11.1826 26.9736 10.4728 27.199C10.2963 27.2574 10.1465 27.3768 10.0501 27.5357C9.95381 27.6947 9.9173 27.8827 9.94716 28.0662C9.97703 28.2496 10.0713 28.4164 10.2131 28.5366C10.3548 28.6568 10.5348 28.7225 10.7207 28.7219C10.805 28.7221 10.8888 28.7084 10.9686 28.6813C11.95 28.3641 12.8255 27.7836 13.4998 27.0031C13.9773 26.4324 14.3204 25.7616 14.5037 25.0404C14.6871 24.3192 14.706 23.566 14.5592 22.8365C14.5259 22.6333 14.479 22.4261 14.43 22.2177Z" fill="#333333"/>
<path d="M49.9594 47.8468L48.9885 44.951C48.9191 44.7593 48.7775 44.6023 48.5939 44.5136C48.4103 44.4249 48.1993 44.4114 48.006 44.4762C47.8126 44.5409 47.6522 44.6786 47.5591 44.86C47.4659 45.0414 47.4473 45.252 47.5073 45.4468L48.2187 47.5698L45.8135 48.2614L44.551 44.4948L48.926 43.1166C49.0255 43.0852 49.1177 43.0342 49.1972 42.9665C49.2766 42.8989 49.3417 42.816 49.3886 42.7228C49.4355 42.6296 49.4632 42.5279 49.4702 42.4238C49.4772 42.3197 49.4632 42.2153 49.4292 42.1166L43.9656 26.2906L45.0385 24.8177C45.4015 24.3205 45.6614 23.7559 45.8031 23.1569C45.9448 22.558 45.9654 21.9367 45.8637 21.3297C45.762 20.7226 45.5401 20.142 45.2109 19.6219C44.8817 19.1018 44.452 18.6527 43.9469 18.301L28.3073 7.31247C28.1448 7.19775 27.9447 7.1494 27.7478 7.17728C27.5509 7.20515 27.3721 7.30717 27.2479 7.46247L26.4958 8.39997L20.3302 3.35726C20.2582 3.29855 20.1764 3.25305 20.0885 3.22289L10.8042 0.0426763C10.6138 -0.0236302 10.4051 -0.013449 10.222 0.0710749C10.039 0.155599 9.8959 0.307867 9.82291 0.495801L8.65624 3.46559C8.61721 3.56484 8.59892 3.67103 8.60249 3.77761C8.60605 3.8842 8.63141 3.98892 8.67698 4.08534C8.72255 4.18176 8.78738 4.26782 8.86748 4.33823C8.94757 4.40865 9.04124 4.46192 9.1427 4.49476L17.7885 7.29164L23.3781 12.2916L22.5708 13.2989C22.5067 13.379 22.4589 13.471 22.4303 13.5695C22.4017 13.6681 22.3927 13.7713 22.404 13.8733C22.4153 13.9753 22.4465 14.0741 22.496 14.164C22.5454 14.2539 22.6121 14.3332 22.6922 14.3974C22.7723 14.4615 22.8642 14.5093 22.9628 14.5379C23.0613 14.5665 23.1645 14.5754 23.2665 14.5642C23.3685 14.5529 23.4673 14.5217 23.5572 14.4722C23.6472 14.4228 23.7265 14.3561 23.7906 14.276L28.0094 9.01247L43.049 19.5833C43.3858 19.8174 43.6723 20.1167 43.8915 20.4634C44.1107 20.8102 44.2581 21.1973 44.325 21.6021C44.3919 22.0025 44.3778 22.4123 44.2836 22.8072C44.1893 23.2021 44.0167 23.574 43.776 23.901L42.4625 25.7031C42.389 25.8053 42.3411 25.9236 42.323 26.0482C42.3049 26.1727 42.317 26.2998 42.3583 26.4187L47.6937 41.8708L42.3865 43.5375L41.2344 40.3833C41.1756 40.2238 41.0667 40.0877 40.9239 39.9954C40.7811 39.9032 40.6123 39.8598 40.4427 39.8718L29.8677 40.651C29.0437 40.7158 28.225 40.472 27.5705 39.9671C26.9161 39.4623 26.4725 38.7322 26.326 37.9187L24.0583 28.2427C23.9722 27.8746 23.9681 27.4922 24.0464 27.1224C24.1248 26.7526 24.2835 26.4046 24.5114 26.1031L28.4896 20.8187C28.5897 20.686 28.6447 20.5248 28.6468 20.3586C28.6489 20.1924 28.5978 20.0299 28.501 19.8948L25.2719 15.3729C25.213 15.2876 25.1378 15.215 25.0505 15.1591C24.9633 15.1032 24.8658 15.0652 24.7638 15.0473C24.6618 15.0295 24.5572 15.0321 24.4562 15.055C24.3551 15.0779 24.2597 15.1207 24.1753 15.1809C24.091 15.241 24.0195 15.3174 23.9649 15.4054C23.9104 15.4935 23.8739 15.5915 23.8575 15.6938C23.8412 15.7961 23.8454 15.9006 23.8699 16.0013C23.8943 16.102 23.9386 16.1968 24 16.2802L26.8927 20.3364L23.2604 25.1646C22.8936 25.6487 22.6381 26.2077 22.512 26.8019C22.386 27.3961 22.3925 28.0107 22.5312 28.6021L24.7917 38.2385C25.0117 39.4248 25.6637 40.4875 26.6216 41.2211C27.5796 41.9547 28.7754 42.3072 29.9781 42.2104L39.9635 41.475L41.1698 44.776C41.2388 44.9652 41.3782 45.1204 41.5589 45.2093C41.7396 45.2982 41.9476 45.3139 42.1396 45.2531L43.0594 44.9635L44.5677 49.4666C44.6316 49.6576 44.7667 49.8164 44.9448 49.9102C45.123 50.0039 45.3304 50.0253 45.5239 49.9698L49.4323 48.8458C49.5332 48.8162 49.6272 48.7666 49.7085 48.6998C49.7898 48.633 49.8568 48.5505 49.9054 48.4572C49.9541 48.3639 49.9834 48.2618 49.9916 48.1569C49.9997 48.052 49.9867 47.9466 49.9531 47.8468H49.9594ZM18.7094 6.01455C18.6286 5.94132 18.533 5.88626 18.4292 5.85309L10.4167 3.26351L11.0062 1.76247L19.4489 4.65622L25.5208 9.6208L24.3583 11.0708L18.7094 6.01455Z" fill="#333333"/>
<path d="M38.5335 37.5729C38.5675 37.6708 38.6206 37.7609 38.6898 37.838C38.759 37.9151 38.8428 37.9777 38.9364 38.0222C39.03 38.0666 39.1314 38.092 39.2349 38.0968C39.3384 38.1016 39.4418 38.0858 39.5392 38.0503C39.6365 38.0148 39.7258 37.9603 39.8018 37.89C39.8779 37.8197 39.9392 37.7349 39.9822 37.6406C40.0252 37.5464 40.049 37.4445 40.0523 37.341C40.0555 37.2374 40.0382 37.1343 40.0012 37.0375L35.721 25.3125C35.6699 25.1733 35.5802 25.0516 35.4626 24.9614C35.3449 24.8712 35.2041 24.8163 35.0564 24.8031L28.9106 24.2479C28.7875 24.2378 28.6637 24.2566 28.5492 24.3029C28.4347 24.3492 28.3326 24.4217 28.2512 24.5146L26.2356 26.8365C26.0782 27.0178 25.9658 27.2337 25.9074 27.4666C25.8489 27.6995 25.8461 27.9429 25.8991 28.1771L27.8033 36.5323C27.9605 37.1934 28.3361 37.7822 28.8693 38.2036C29.4025 38.6249 30.0622 38.8541 30.7418 38.8542C30.8335 38.8542 30.9262 38.8542 31.0189 38.8417L36.7481 38.3208C36.9495 38.2957 37.1333 38.1933 37.2606 38.0353C37.3879 37.8772 37.4488 37.6758 37.4305 37.4737C37.4121 37.2715 37.3158 37.0844 37.1621 36.9519C37.0083 36.8194 36.809 36.7519 36.6064 36.7635L30.8772 37.2896C30.529 37.3249 30.1798 37.2324 29.8948 37.0292C29.6098 36.826 29.4084 36.5261 29.3283 36.1854L27.4168 27.8604L29.1668 25.8406L30.7168 25.9802L32.2241 30.7083L31.146 33.1729C31.0705 33.3614 31.0713 33.5719 31.1483 33.7597C31.2254 33.9476 31.3725 34.0981 31.5586 34.1794C31.7446 34.2606 31.955 34.2663 32.1452 34.195C32.3353 34.1238 32.4903 33.9814 32.5772 33.7979L33.7741 31.0646C33.8507 30.8906 33.8611 30.6946 33.8033 30.5135L32.4064 26.1312L34.421 26.3135L38.5335 37.5729Z" fill="#333333"/>
</g>
<defs>
<clipPath id="clip0_238_30">
<rect width="50" height="50" fill="white"/>
</clipPath>
</defs>
</svg>
