<svg width="50" height="50" viewBox="0 0 50 50" fill="none" xmlns="http://www.w3.org/2000/svg">
<path d="M38.1851 24.5561H41.6728C42.4612 24.5561 43.1027 23.9146 43.1027 23.1261V19.6384C43.1027 18.8499 42.4612 18.2084 41.6728 18.2084H38.1851C37.3966 18.2084 36.7551 18.8499 36.7551 19.6384V23.1261C36.7551 23.9146 37.3966 24.5561 38.1851 24.5561ZM38.2199 19.6732H41.6379V23.0912H38.2199V19.6732ZM38.1851 33.8334H41.6728C42.4612 33.8334 43.1027 33.1919 43.1027 32.4034V28.9157C43.1027 28.1272 42.4612 27.4857 41.6728 27.4857H38.1851C37.3966 27.4857 36.7551 28.1272 36.7551 28.9157V32.4034C36.7551 33.1919 37.3966 33.8334 38.1851 33.8334ZM38.2199 28.9506H41.6379V32.3686H38.2199V28.9506ZM28.2323 24.5561H31.72C32.5085 24.5561 33.15 23.9146 33.15 23.1261V19.6384C33.15 18.8499 32.5085 18.2084 31.72 18.2084H28.2323C27.4438 18.2084 26.8023 18.8499 26.8023 19.6384V23.1261C26.8023 23.9146 27.4438 24.5561 28.2323 24.5561ZM28.2672 19.6732H31.6852V23.0912H28.2672V19.6732ZM11.8146 36.3281H8.32686C7.53838 36.3281 6.89687 36.9696 6.89687 37.7581V41.2458C6.89687 42.0343 7.53838 42.6758 8.32686 42.6758H11.8146C12.603 42.6758 13.2445 42.0343 13.2445 41.2458V37.7581C13.2445 36.9696 12.603 36.3281 11.8146 36.3281ZM11.7797 41.2109H8.36172V37.793H11.7797V41.2109ZM11.8146 18.2084H8.32686C7.53838 18.2084 6.89687 18.8499 6.89687 19.6384V23.1261C6.89687 23.9146 7.53838 24.5561 8.32686 24.5561H11.8146C12.603 24.5561 13.2445 23.9146 13.2445 23.1261V19.6384C13.2445 18.8498 12.603 18.2084 11.8146 18.2084ZM11.7797 23.0912H8.36172V19.6732H11.7797V23.0912ZM28.2323 33.6159H31.72C32.5085 33.6159 33.15 32.9744 33.15 32.1859V28.6982C33.15 27.9098 32.5085 27.2683 31.72 27.2683H28.2323C27.4438 27.2683 26.8023 27.9098 26.8023 28.6982V32.1859C26.8023 32.9744 27.4438 33.6159 28.2323 33.6159ZM28.2672 28.7331H31.6852V32.1511H28.2672V28.7331ZM43.8302 3.34707H40.6987V2.22725C40.6987 0.999121 39.6996 0 38.4715 0H38.1352C36.9071 0 35.908 0.999121 35.908 2.22725V3.34707H14.0916V2.22725C14.0916 0.999121 13.0925 0 11.8644 0H11.528C10.2999 0 9.30078 0.999121 9.30078 2.22725V3.34707H6.16943C4.14746 3.34707 2.50244 4.99209 2.50244 7.01406V46.3379C2.50244 48.3572 4.14521 50 6.16455 50H43.8353C45.8546 50 47.4974 48.3572 47.4974 46.3379V7.01406C47.4973 4.99209 45.8522 3.34707 43.8302 3.34707ZM37.3729 2.22725C37.3729 1.80684 37.7148 1.46484 38.1353 1.46484H38.4716C38.892 1.46484 39.234 1.80684 39.234 2.22725V3.34707H37.3729V2.22725ZM10.7657 2.22725C10.7657 1.80684 11.1077 1.46484 11.5281 1.46484H11.8645C12.2849 1.46484 12.6269 1.80684 12.6269 2.22725V3.34707H10.7658V2.22725H10.7657ZM46.0324 46.3379C46.0324 47.5495 45.0468 48.5352 43.8352 48.5352H6.16445C4.95283 48.5352 3.96719 47.5495 3.96719 46.3379V46.3333C4.58086 46.7957 5.34365 47.0703 6.16943 47.0703H35.865C36.8445 47.0703 37.7654 46.6889 38.458 45.9962L46.0324 38.4218V46.3379ZM37.7106 44.672C37.7681 44.435 37.7993 44.1878 37.7993 43.9334V39.0443C37.7993 38.1225 38.5494 37.3724 39.4714 37.3724H44.3604C44.6147 37.3724 44.8619 37.3411 45.0989 37.2837L37.7106 44.672ZM46.0324 13.8139H14.824C14.4195 13.8139 14.0916 14.1418 14.0916 14.5463C14.0916 14.9508 14.4195 15.2787 14.824 15.2787H46.0324V34.2355C46.0324 35.1575 45.2823 35.9076 44.3604 35.9076H39.4714C37.7417 35.9076 36.3345 37.3148 36.3345 39.0444V43.9335C36.3345 44.8555 35.5844 45.6056 34.6625 45.6056H6.16943C4.95518 45.6056 3.96728 44.6177 3.96728 43.4033V15.2787H11.8943C12.2988 15.2787 12.6268 14.9508 12.6268 14.5463C12.6268 14.1418 12.2988 13.8139 11.8943 13.8139H3.96719V7.01406C3.96719 5.7998 4.95508 4.81191 6.16934 4.81191H9.30078V6.96543C9.30078 8.19355 10.2999 9.19268 11.528 9.19268C11.9325 9.19268 12.2604 8.86475 12.2604 8.46025C12.2604 8.05576 11.9325 7.72783 11.528 7.72783C11.1076 7.72783 10.7656 7.38584 10.7656 6.96543V4.81191H35.908V6.96543C35.908 8.19355 36.9071 9.19268 38.1353 9.19268C38.5397 9.19268 38.8677 8.86475 38.8677 8.46025C38.8677 8.05576 38.5397 7.72783 38.1353 7.72783C37.7148 7.72783 37.3729 7.38584 37.3729 6.96543V4.81191H43.8303C45.0445 4.81191 46.0324 5.7998 46.0324 7.01406V13.8139ZM11.8146 27.2683H8.32686C7.53838 27.2683 6.89687 27.9098 6.89687 28.6982V32.1859C6.89687 32.9744 7.53838 33.6159 8.32686 33.6159H11.8146C12.603 33.6159 13.2445 32.9744 13.2445 32.1859V28.6982C13.2445 27.9097 12.603 27.2683 11.8146 27.2683ZM11.7797 32.1511H8.36172V28.7331H11.7797V32.1511ZM18.2796 24.5561H21.7673C22.5558 24.5561 23.1973 23.9146 23.1973 23.1261V19.6384C23.1973 18.8499 22.5558 18.2084 21.7673 18.2084H18.2796C17.4911 18.2084 16.8496 18.8499 16.8496 19.6384V23.1261C16.8496 23.9146 17.4911 24.5561 18.2796 24.5561ZM18.3145 19.6732H21.7324V23.0912H18.3145V19.6732ZM28.2663 41.2109C28.2481 40.8226 27.9275 40.5134 27.5347 40.5134C27.1302 40.5134 26.8022 40.8413 26.8022 41.2458C26.8022 42.0343 27.4437 42.6758 28.2322 42.6758H31.7199C32.5084 42.6758 33.1499 42.0343 33.1499 41.2458V37.7581C33.1499 36.9696 32.5084 36.3281 31.7199 36.3281H28.2322C27.4437 36.3281 26.8022 36.9696 26.8022 37.7581V38.764C26.8022 39.1685 27.1302 39.4964 27.5347 39.4964C27.9392 39.4964 28.2671 39.1685 28.2671 38.764V37.793H31.6851V41.2109H28.2663ZM18.2796 33.6159H21.7673C22.5558 33.6159 23.1973 32.9744 23.1973 32.1859V28.6982C23.1973 27.9098 22.5558 27.2683 21.7673 27.2683H18.2796C17.4911 27.2683 16.8496 27.9098 16.8496 28.6982V32.1859C16.8496 32.9744 17.4911 33.6159 18.2796 33.6159ZM18.3145 28.7331H21.7324V32.1511H18.3145V28.7331ZM18.2796 42.6758H21.7673C22.5558 42.6758 23.1973 42.0343 23.1973 41.2458V37.7581C23.1973 36.9696 22.5558 36.3281 21.7673 36.3281H18.2796C17.4911 36.3281 16.8496 36.9696 16.8496 37.7581V41.2458C16.8496 42.0343 17.4911 42.6758 18.2796 42.6758ZM18.3145 37.793H21.7324V41.2109H18.3145V37.793Z" fill="#333333"/>
</svg>
