<svg width="125" height="125" viewBox="0 0 125 125" fill="none" xmlns="http://www.w3.org/2000/svg">
<circle cx="62.5" cy="62.5" r="62.5" fill="#252525"/>
<path d="M62 26.0808L30.5 37.537V63C30.5 91.7725 61.0669 99.5988 61.3745 99.6757L62 99.8269L62.6255 99.6757C62.9331 99.5988 93.5 91.7725 93.5 63V37.537L62 26.0808ZM88.25 63C88.25 85.7816 66.1759 93.2054 62.0103 94.4026C57.9933 93.2131 35.75 85.5868 35.75 63V41.213L62 31.6692L88.25 41.213V63Z" fill="white"/>
<path d="M48.106 61.144L44.394 64.856L56.75 77.2119L79.606 54.356L75.894 50.644L56.75 69.7881L48.106 61.144Z" fill="white"/>
</svg>
