<svg width="45" height="45" viewBox="0 0 45 45" fill="none" xmlns="http://www.w3.org/2000/svg">
<g clip-path="url(#clip0_231_255)">
<path d="M22.5008 44.9996C34.9271 44.9996 45.0006 34.9261 45.0006 22.4998C45.0006 10.0735 34.9271 0 22.5008 0C10.0745 0 0.00100708 10.0735 0.00100708 22.4998C0.00100708 34.9261 10.0745 44.9996 22.5008 44.9996Z" fill="white"/>
<path d="M17.4484 14.0276C24.0214 13.9724 30.5947 14.0197 37.1693 14.0063C36.2114 16.3172 35.2349 18.6213 34.2849 20.9364C34.2365 21.0542 34.1881 21.1729 34.1427 21.2916C27.0229 21.3156 19.9031 21.3177 12.7838 21.3041C13.5068 19.5739 14.2318 17.8432 14.9411 16.1063C15.3823 15.0593 16.3495 14.2896 17.4484 14.0276" fill="url(#paint0_linear_231_255)"/>
<path d="M9 30.5737C9.97031 28.1305 10.9979 25.7102 12.0234 23.2909C19.1198 23.3118 26.2166 23.3055 33.313 23.2961C32.6474 25.0342 31.8838 26.7347 31.1922 28.4638C30.8037 29.494 29.8619 30.2795 28.8026 30.5503C23.1854 30.5956 17.5672 30.5399 11.9479 30.5409C10.9662 30.5524 9.98229 30.4993 9 30.5737Z" fill="url(#paint1_linear_231_255)"/>
</g>
<defs>
<linearGradient id="paint0_linear_231_255" x1="12.7838" y1="17.6565" x2="37.1693" y2="17.6565" gradientUnits="userSpaceOnUse">
<stop stop-color="#AC2829"/>
<stop offset="1" stop-color="#E42434"/>
</linearGradient>
<linearGradient id="paint1_linear_231_255" x1="9" y1="26.9328" x2="33.3132" y2="26.9328" gradientUnits="userSpaceOnUse">
<stop stop-color="#264577"/>
<stop offset="1" stop-color="#29619B"/>
</linearGradient>
<clipPath id="clip0_231_255">
<rect width="45" height="45" fill="white"/>
</clipPath>
</defs>
</svg>
