<svg width="45" height="45" viewBox="0 0 45 45" fill="none" xmlns="http://www.w3.org/2000/svg">
<g clip-path="url(#clip0_231_243)">
<path d="M33.0366 18.2003C32.9852 17.0773 32.8069 16.3104 32.5461 15.6394C32.2813 14.9355 31.8659 14.2978 31.3292 13.7708C30.8023 13.2341 30.1645 12.8186 29.4606 12.5536C28.7894 12.293 28.0227 12.1148 26.8997 12.0637C25.7746 12.0122 25.4151 12 22.55 12C19.6849 12 19.3254 12.0122 18.2003 12.0634C17.0773 12.1148 16.3106 12.2931 15.6394 12.5539C14.9355 12.8187 14.2978 13.2341 13.7708 13.7708C13.2341 14.2977 12.8186 14.9353 12.5536 15.6393C12.293 16.3104 12.1148 17.0773 12.0637 18.2002C12.0122 19.3254 12 19.6847 12 22.5498C12 25.4151 12.0122 25.7746 12.0637 26.8997C12.1149 28.0225 12.2933 28.7894 12.5541 29.4606C12.8189 30.1644 13.2342 30.8022 13.7709 31.3291C14.2978 31.8658 14.9356 32.2811 15.6396 32.5459C16.3106 32.8069 17.0775 32.9851 18.2005 33.0364C19.3257 33.0878 19.685 33.0998 22.5502 33.0998C25.4153 33.0998 25.7748 33.0878 26.8998 33.0364C28.0228 32.9851 28.7896 32.8069 29.4607 32.5459C30.8778 31.9979 31.9981 30.8777 32.5461 29.4606C32.807 28.7894 32.9852 28.0225 33.0366 26.8997C33.0878 25.7744 33.1 25.4151 33.1 22.55C33.1 19.6847 33.0878 19.3254 33.0366 18.2003ZM31.1375 26.8132C31.0906 27.8419 30.9187 28.4005 30.7743 28.7722C30.4194 29.6924 29.6922 30.4195 28.772 30.7745C28.4003 30.9189 27.8417 31.0908 26.8131 31.1377C25.7009 31.1885 25.3672 31.1991 22.55 31.1991C19.7327 31.1991 19.3991 31.1885 18.2868 31.1377C17.2583 31.0908 16.6997 30.9189 16.3278 30.7745C15.8696 30.6053 15.4551 30.3356 15.1148 29.9852C14.7644 29.6449 14.4947 29.2305 14.3255 28.7722C14.1811 28.4005 14.0092 27.8419 13.9623 26.8132C13.9116 25.7009 13.9009 25.3672 13.9009 22.5502C13.9009 19.733 13.9116 19.3995 13.9623 18.2869C14.0094 17.2583 14.1811 16.6997 14.3255 16.328C14.4947 15.8696 14.7645 15.4551 15.1148 15.1148C15.4551 14.7644 15.8696 14.4947 16.328 14.3257C16.6997 14.1811 17.2583 14.0094 18.2869 13.9623C19.3993 13.9116 19.733 13.9009 22.55 13.9009H22.5498C25.3668 13.9009 25.7005 13.9116 26.8131 13.9625C27.8417 14.0094 28.4002 14.1813 28.772 14.3257C29.2302 14.4949 29.6447 14.7645 29.985 15.1148C30.3355 15.4551 30.6051 15.8696 30.7742 16.328C30.9187 16.6997 31.0906 17.2583 31.1375 18.2869C31.1882 19.3993 31.199 19.733 31.199 22.55C31.199 25.3672 31.1884 25.7007 31.1375 26.8132Z" fill="url(#paint0_linear_231_243)"/>
<path d="M22.5499 17.1323C19.5579 17.1323 17.1324 19.558 17.1324 22.55C17.1324 25.5419 19.5579 27.9674 22.5499 27.9674C25.542 27.9674 27.9675 25.5419 27.9675 22.55C27.9675 19.558 25.542 17.1323 22.5499 17.1323ZM22.5499 26.0666C20.6078 26.0664 19.0332 24.492 19.0334 22.5498C19.0334 20.6077 20.6078 19.0332 22.55 19.0332C24.4922 19.0333 26.0666 20.6077 26.0666 22.5498C26.0666 24.492 24.4921 26.0666 22.5499 26.0666Z" fill="url(#paint1_linear_231_243)"/>
<path d="M29.4475 16.9185C29.4475 17.6176 28.8807 18.1844 28.1816 18.1844C27.4823 18.1844 26.9155 17.6176 26.9155 16.9185C26.9155 16.2192 27.4823 15.6523 28.1816 15.6523C28.8807 15.6523 29.4475 16.2192 29.4475 16.9185Z" fill="url(#paint2_linear_231_243)"/>
</g>
<path d="M22.5 0C10.0755 0 0 10.0755 0 22.5C0 34.9245 10.0755 45 22.5 45C34.9245 45 45 34.9245 45 22.5C45 10.0755 34.9245 0 22.5 0ZM35.342 27.8267C35.2795 29.202 35.0608 30.141 34.7415 30.9629C34.0703 32.6984 32.6984 34.0703 30.9629 34.7415C30.1413 35.0608 29.202 35.2792 27.827 35.342C26.4492 35.4048 26.0091 35.4199 22.5003 35.4199C18.9912 35.4199 18.5514 35.4048 17.1733 35.342C15.7983 35.2792 14.859 35.0608 14.0374 34.7415C13.175 34.4171 12.3943 33.9086 11.7488 33.2512C11.0917 32.606 10.5833 31.825 10.2588 30.9629C9.93954 30.1413 9.72084 29.202 9.65836 27.827C9.59484 26.4489 9.58008 26.0088 9.58008 22.5C9.58008 18.9912 9.59484 18.5511 9.65801 17.1733C9.7205 15.798 9.93885 14.859 10.2581 14.0371C10.5826 13.175 11.0914 12.394 11.7488 11.7488C12.394 11.0914 13.175 10.5829 14.0371 10.2585C14.859 9.93919 15.798 9.72084 17.1733 9.65801C18.5511 9.59518 18.9912 9.58008 22.5 9.58008C26.0088 9.58008 26.4489 9.59518 27.8267 9.65836C29.202 9.72084 30.141 9.93919 30.9629 10.2581C31.825 10.5826 32.606 11.0914 33.2515 11.7488C33.9086 12.3943 34.4174 13.175 34.7415 14.0371C35.0611 14.859 35.2795 15.798 35.3423 17.1733C35.4052 18.5511 35.4199 18.9912 35.4199 22.5C35.4199 26.0088 35.4052 26.4489 35.342 27.8267Z" fill="white"/>
<defs>
<linearGradient id="paint0_linear_231_243" x1="13.7707" y1="31.3292" x2="31.3293" y2="13.7705" gradientUnits="userSpaceOnUse">
<stop stop-color="white"/>
</linearGradient>
<linearGradient id="paint1_linear_231_243" x1="18.7192" y1="26.3807" x2="26.3807" y2="18.7191" gradientUnits="userSpaceOnUse">
<stop stop-color="white"/>
</linearGradient>
<linearGradient id="paint2_linear_231_243" x1="27.2863" y1="17.8136" x2="29.0767" y2="16.0232" gradientUnits="userSpaceOnUse">
<stop stop-color="white"/>
</linearGradient>
<clipPath id="clip0_231_243">
<rect width="21.1" height="21.1" fill="white" transform="translate(12 12)"/>
</clipPath>
</defs>
</svg>
