<svg width="119" height="79" viewBox="0 0 119 79" fill="none" xmlns="http://www.w3.org/2000/svg">
<path d="M25.0237 8.10368C27.1339 7.62526 29.2622 8.2936 31.3483 8.65055C31.3965 10.5871 31.1981 12.5086 30.8854 14.3998C28.9555 13.9441 26.9896 13.4656 25.2162 12.3719C23.9295 11.62 23.8574 9.06834 25.0237 8.10368Z" fill="#EC1B24"/>
<path d="M80.4122 8.61247C82.3241 8.30871 84.2539 7.73152 86.1837 8.0429C87.7108 8.32396 87.9092 11.5593 86.5445 12.3111C84.7649 13.4199 82.7929 13.8909 80.875 14.4452C80.4182 12.5541 80.1536 10.5872 80.4122 8.61247Z" fill="#EC1B24"/>
<path d="M38.2021 5.1873C39.2782 3.30394 41.2501 3.0837 42.9395 3.12165C51.5728 3.16722 60.212 3.16722 68.8513 3.12928C70.5226 3.0837 72.4704 3.36458 73.5045 5.2632C74.9594 7.89098 75.9033 10.9137 76.733 13.9287C62.8212 13.9745 48.9095 13.9516 34.9977 13.9364C35.641 10.8151 36.7231 7.82272 38.2021 5.1873Z" fill="#282828"/>
<path d="M38.2021 5.18727C36.7231 7.82269 35.641 10.8151 34.9976 13.9363C48.9095 13.9516 62.8212 13.9745 76.733 13.9287C75.9033 10.9136 74.9594 7.89095 73.5045 5.26316C72.4703 3.36454 70.5225 3.08367 68.8513 3.12924C60.2119 3.16719 51.5728 3.16719 42.9395 3.12161C41.2501 3.08367 39.2781 3.30391 38.2021 5.18727ZM36.134 3.31897C37.5468 0.881101 40.0176 -0.0986243 42.3322 0.00777628C51.3684 0.0306581 60.4103 0.0306581 69.4523 0.00777628C71.6167 -0.0757424 73.8773 0.873473 75.296 3.01521C78.0014 7.32901 78.6026 13.2909 81.7951 17.1793C73.4083 22.3513 65.238 28.0624 56.8332 33.1889C51.1098 28.8522 45.693 23.855 39.759 19.9893C43.222 28.5334 47.719 36.3636 51.4043 44.7631C47.25 45.0442 43.0838 45.0442 38.9234 44.9378C38.5026 46.7302 38.7912 49.2745 37.3243 50.3453C34.2342 50.8693 31.0658 50.6338 27.9515 50.4897C25.9495 50.4668 24.7652 47.7099 24.9516 45.4164C25.0057 38.3457 24.8073 31.2598 25.0418 24.1967C25.9677 20.3007 28.8353 17.8552 31.1559 15.3035C33.14 11.544 34.0357 7.00256 36.134 3.31897" fill="#EC1B24"/>
<path d="M78.2059 30.7054C80.8933 27.9182 83.3641 24.7891 86.2499 22.3133C87.1938 28.6548 86.4303 35.1636 86.7008 41.581C86.5686 44.4898 87.3501 48.7428 84.6929 50.2162C82.0475 50.953 79.288 50.5199 76.5947 50.6037C75.5364 50.4212 74.0395 50.8769 73.4444 49.434C73.0296 48.0594 73.0235 46.5555 72.8733 45.1126C70.2941 44.9303 67.7149 44.9759 65.1418 45.0214C69.3503 40.0469 73.9013 35.5508 78.2059 30.7054Z" fill="#EC1B24"/>
<path d="M56.8272 34.9661C69.4703 26.8245 82.0656 18.5692 94.7146 10.4581C82.1859 24.5234 69.278 38.0647 56.6468 52.0009C51.8132 42.409 46.9374 32.832 42.3022 23.0803C47.226 26.8777 51.9634 31.0472 56.8272 34.9661Z" fill="#282828"/>
<path d="M15.7728 71.5388V70.4841L20.1732 64.9822C20.4857 64.5916 20.7825 64.2517 21.0638 63.9627H16.2708V62.949H22.4232V63.9627L17.6009 69.9216L17.0794 70.5252H22.5638V71.5388H15.7728ZM31.9095 70.5252C31.5618 70.9119 31.1829 71.2029 30.7728 71.3982C30.3626 71.5896 29.9193 71.6853 29.4427 71.6853C28.5638 71.6853 27.8665 71.3884 27.3509 70.7947C26.9329 70.3103 26.7239 69.7693 26.7239 69.1716C26.7239 68.6404 26.8939 68.1619 27.2337 67.7361C27.5775 67.3064 28.0892 66.9295 28.7689 66.6052C28.3821 66.1599 28.1243 65.7986 27.9954 65.5213C27.8665 65.2439 27.8021 64.9763 27.8021 64.7185C27.8021 64.2029 28.0032 63.7556 28.4056 63.3767C28.8118 62.9939 29.3216 62.8025 29.9349 62.8025C30.5208 62.8025 30.9993 62.9822 31.3704 63.3416C31.7454 63.7009 31.9329 64.1326 31.9329 64.6365C31.9329 65.4529 31.3919 66.1502 30.3099 66.7283L31.8509 68.6912C32.0267 68.3474 32.1634 67.949 32.261 67.4959L33.3568 67.7302C33.1693 68.4802 32.9153 69.0974 32.595 69.5818C32.9896 70.1052 33.4368 70.5447 33.9368 70.9002L33.2278 71.7381C32.8021 71.4646 32.3626 71.0603 31.9095 70.5252ZM29.765 66.0486C30.222 65.7791 30.5169 65.5427 30.6497 65.3396C30.7864 65.1365 30.8548 64.9119 30.8548 64.6658C30.8548 64.3728 30.761 64.1345 30.5735 63.9509C30.39 63.7634 30.1595 63.6697 29.8821 63.6697C29.597 63.6697 29.3587 63.7615 29.1673 63.9451C28.9798 64.1287 28.886 64.3533 28.886 64.6189C28.886 64.7517 28.9193 64.8923 28.9857 65.0408C29.056 65.1853 29.1595 65.3396 29.2962 65.5037L29.765 66.0486ZM31.2474 69.6931L29.3138 67.2966C28.7435 67.6365 28.3587 67.9529 28.1595 68.2459C27.9603 68.5349 27.8607 68.822 27.8607 69.1072C27.8607 69.4548 27.9993 69.8162 28.2767 70.1912C28.554 70.5662 28.9466 70.7537 29.4544 70.7537C29.7708 70.7537 30.097 70.656 30.4329 70.4607C30.7728 70.2615 31.0443 70.0056 31.2474 69.6931ZM36.8665 71.5388L40.1653 62.949H41.39L44.9056 71.5388H43.6107L42.6087 68.9373H39.0169L38.0735 71.5388H36.8665ZM39.345 68.0115H42.2571L41.3607 65.6326C41.0872 64.9099 40.8841 64.3162 40.7513 63.8513C40.6419 64.4021 40.4876 64.949 40.2884 65.492L39.345 68.0115ZM48.4505 71.5388V62.949H50.1614L52.1946 69.031C52.3821 69.5974 52.5189 70.0213 52.6048 70.3025C52.7025 69.99 52.8548 69.531 53.0618 68.9256L55.1185 62.949H56.6478V71.5388H55.5521V64.3494L53.056 71.5388H52.0306L49.5462 64.2263V71.5388H48.4505ZM58.136 67.3552C58.136 65.9295 58.5189 64.8142 59.2845 64.0095C60.0501 63.2009 61.0384 62.7966 62.2493 62.7966C63.0423 62.7966 63.7571 62.9861 64.3939 63.365C65.0306 63.7439 65.515 64.2732 65.847 64.9529C66.1829 65.6287 66.3509 66.3963 66.3509 67.2556C66.3509 68.1267 66.1751 68.906 65.8235 69.5935C65.472 70.281 64.9739 70.8025 64.3294 71.158C63.6849 71.5095 62.9896 71.6853 62.2435 71.6853C61.4349 71.6853 60.7122 71.49 60.0755 71.0994C59.4388 70.7088 58.9564 70.1756 58.6282 69.4998C58.3001 68.824 58.136 68.1091 58.136 67.3552ZM59.3079 67.3728C59.3079 68.408 59.5853 69.2244 60.14 69.822C60.6985 70.4158 61.3978 70.7127 62.2376 70.7127C63.0931 70.7127 63.7962 70.4119 64.347 69.8103C64.9017 69.2088 65.179 68.3552 65.179 67.2498C65.179 66.5506 65.0599 65.9412 64.8216 65.4216C64.5872 64.8982 64.2415 64.4939 63.7845 64.2088C63.3314 63.9197 62.8216 63.7752 62.2552 63.7752C61.4505 63.7752 60.7571 64.0525 60.1751 64.6072C59.597 65.158 59.3079 66.0798 59.3079 67.3728ZM70.0071 71.5388V63.9627H67.1771V62.949H73.9857V63.9627H71.1439V71.5388H70.0071ZM74.5892 67.3552C74.5892 65.9295 74.972 64.8142 75.7376 64.0095C76.5032 63.2009 77.4915 62.7966 78.7025 62.7966C79.4954 62.7966 80.2103 62.9861 80.847 63.365C81.4837 63.7439 81.9681 64.2732 82.3001 64.9529C82.636 65.6287 82.804 66.3963 82.804 67.2556C82.804 68.1267 82.6282 68.906 82.2767 69.5935C81.9251 70.281 81.4271 70.8025 80.7825 71.158C80.138 71.5095 79.4427 71.6853 78.6966 71.6853C77.888 71.6853 77.1653 71.49 76.5286 71.0994C75.8919 70.7088 75.4095 70.1756 75.0814 69.4998C74.7532 68.824 74.5892 68.1091 74.5892 67.3552ZM75.761 67.3728C75.761 68.408 76.0384 69.2244 76.5931 69.822C77.1517 70.4158 77.8509 70.7127 78.6907 70.7127C79.5462 70.7127 80.2493 70.4119 80.8001 69.8103C81.3548 69.2088 81.6321 68.3552 81.6321 67.2498C81.6321 66.5506 81.513 65.9412 81.2747 65.4216C81.0403 64.8982 80.6946 64.4939 80.2376 64.2088C79.7845 63.9197 79.2747 63.7752 78.7083 63.7752C77.9036 63.7752 77.2103 64.0525 76.6282 64.6072C76.0501 65.158 75.761 66.0798 75.761 67.3728ZM84.2923 71.5388V62.949H88.1009C88.8665 62.949 89.4485 63.0271 89.847 63.1834C90.2454 63.3357 90.5638 63.6072 90.8021 63.9978C91.0403 64.3884 91.1595 64.8201 91.1595 65.2927C91.1595 65.9021 90.9622 66.4158 90.5677 66.8338C90.1732 67.2517 89.5638 67.5173 88.7396 67.6306C89.0403 67.7752 89.2689 67.9177 89.4251 68.0584C89.7571 68.3631 90.0716 68.7439 90.3685 69.2009L91.8626 71.5388H90.4329L89.2962 69.7517C88.9642 69.2361 88.6907 68.8416 88.4759 68.5681C88.261 68.2947 88.0677 68.1033 87.8958 67.9939C87.7278 67.8845 87.556 67.8084 87.3802 67.7654C87.2513 67.7381 87.0403 67.7244 86.7474 67.7244H85.429V71.5388H84.2923ZM85.429 66.74H87.8724C88.3919 66.74 88.7982 66.6873 89.0911 66.5818C89.3841 66.4724 89.6068 66.3006 89.7591 66.0662C89.9114 65.8279 89.9876 65.5701 89.9876 65.2927C89.9876 64.8865 89.8392 64.5525 89.5423 64.2908C89.2493 64.0291 88.7845 63.8982 88.1478 63.8982H85.429V66.74ZM92.5599 68.7791L93.6321 68.6853C93.6829 69.115 93.8001 69.4685 93.9837 69.7459C94.1712 70.0193 94.4603 70.242 94.8509 70.4138C95.2415 70.5818 95.681 70.6658 96.1693 70.6658C96.6028 70.6658 96.9857 70.6013 97.3177 70.4724C97.6497 70.3435 97.8958 70.1677 98.056 69.9451C98.22 69.7185 98.3021 69.4724 98.3021 69.2068C98.3021 68.9373 98.2239 68.7029 98.0677 68.5037C97.9114 68.3006 97.6536 68.1306 97.2943 67.9939C97.0638 67.9041 96.554 67.7654 95.765 67.5779C94.9759 67.3865 94.4232 67.2068 94.1068 67.0388C93.6966 66.824 93.39 66.5584 93.1868 66.242C92.9876 65.9216 92.888 65.5642 92.888 65.1697C92.888 64.7361 93.011 64.3318 93.2571 63.9568C93.5032 63.5779 93.8626 63.2908 94.3353 63.0955C94.8079 62.9002 95.3333 62.8025 95.9114 62.8025C96.5482 62.8025 97.1087 62.906 97.5931 63.1131C98.0814 63.3162 98.4564 63.617 98.7181 64.0154C98.9798 64.4138 99.1204 64.865 99.14 65.3689L98.0501 65.4509C97.9915 64.908 97.7923 64.4978 97.4525 64.2205C97.1165 63.9431 96.6185 63.8045 95.9583 63.8045C95.2708 63.8045 94.7689 63.9314 94.4525 64.1853C94.14 64.4353 93.9837 64.7381 93.9837 65.0935C93.9837 65.4021 94.095 65.656 94.3177 65.8552C94.5364 66.0545 95.1068 66.2595 96.0286 66.4705C96.9544 66.6775 97.5892 66.8591 97.9329 67.0154C98.4329 67.2459 98.8021 67.5388 99.0403 67.8943C99.2786 68.2459 99.3978 68.6521 99.3978 69.1131C99.3978 69.5701 99.2669 70.0017 99.0052 70.408C98.7435 70.8103 98.3665 71.1248 97.8743 71.3513C97.386 71.574 96.8353 71.6853 96.222 71.6853C95.4446 71.6853 94.7923 71.572 94.265 71.3455C93.7415 71.1189 93.3294 70.7791 93.0286 70.3259C92.7318 69.8689 92.5755 69.3533 92.5599 68.7791Z" fill="#282828"/>
<path d="M118.533 57.6422H0V56.8957H118.533V57.6422Z" fill="#282828"/>
</svg>
